<?xml version="1.0" standalone="no"?>
<!DOCTYPE svg PUBLIC "-//W3C//DTD SVG 20010904//EN"
 "http://www.w3.org/TR/2001/REC-SVG-20010904/DTD/svg10.dtd">
<svg version="1.0" xmlns="http://www.w3.org/2000/svg"
 width="500.000000pt" height="500.000000pt" viewBox="0 0 500.000000 500.000000"
 preserveAspectRatio="xMidYMid meet">

<g transform="translate(0.000000,500.000000) scale(0.100000,-0.100000)"
fill="#000000" stroke="none">
<path d="M2435 3484 c-111 -24 -169 -51 -236 -111 -109 -99 -160 -267 -125
-416 20 -87 47 -138 104 -199 190 -203 527 -178 679 50 172 260 26 614 -277
672 -53 10 -107 11 -145 4z m-61 -220 c9 -25 7 -417 -3 -433 -5 -7 -14 -10
-20 -7 -12 8 -16 437 -4 449 11 11 20 8 27 -9z m-69 -212 c0 -166 -19 -162
-23 4 -2 99 0 125 10 122 10 -4 13 -36 13 -126z m133 8 c3 -129 0 -149 -23
-130 -12 10 -15 36 -15 115 0 109 5 138 24 132 7 -2 12 -44 14 -117z m120 -5
c-4 -159 -22 -168 -26 -13 -3 116 0 138 18 138 7 0 10 -42 8 -125z m130 -11
c-4 -153 -22 -155 -26 -2 -3 117 2 148 19 131 6 -6 8 -59 7 -129z m-190 11
c-4 -87 -22 -88 -26 -2 -2 56 0 67 13 67 13 0 15 -11 13 -65z m127 -6 c0 -50
-3 -64 -15 -64 -11 0 -16 14 -18 54 -4 61 3 84 21 78 8 -2 12 -25 12 -68z
m133 6 c3 -61 -11 -93 -28 -65 -11 17 -13 90 -4 115 13 32 29 7 32 -50z m-508
-6 c0 -28 -4 -39 -15 -39 -11 0 -15 11 -15 38 0 21 3 42 6 45 14 13 24 -6 24
-44z m570 11 c0 -29 -11 -50 -26 -50 -14 0 -21 70 -7 83 10 10 33 -13 33 -33z"/>
<path d="M1026 2308 c-12 -17 -16 -49 -16 -136 0 -108 8 -147 34 -164 22 -15
76 -8 96 12 18 18 20 33 20 148 0 149 -6 162 -78 162 -31 0 -45 -5 -56 -22z
m88 -34 c3 -9 6 -60 6 -114 0 -101 -11 -130 -45 -116 -12 4 -15 27 -15 119 0
63 3 117 7 120 12 13 41 7 47 -9z"/>
<path d="M1260 2165 l0 -165 25 0 c24 0 25 2 25 70 0 61 2 70 18 70 31 0 42
-22 42 -82 0 -55 1 -58 25 -58 23 0 25 3 25 53 0 28 -7 64 -15 80 -12 24 -12
32 1 64 18 41 12 94 -12 118 -10 10 -35 15 -75 15 l-59 0 0 -165z m98 113 c7
-7 12 -26 12 -43 0 -35 -15 -55 -42 -55 -15 0 -18 9 -18 55 0 46 3 55 18 55
10 0 23 -5 30 -12z"/>
<path d="M1536 2314 c-13 -12 -16 -41 -16 -149 0 -127 1 -135 22 -149 32 -23
81 -20 104 5 13 15 20 40 22 90 l4 69 -36 0 c-29 0 -36 -4 -36 -20 0 -11 5
-20 10 -20 6 0 10 -20 10 -45 0 -50 -18 -67 -45 -45 -13 11 -15 34 -13 124 3
111 3 111 28 111 21 0 26 -5 28 -32 2 -25 8 -33 22 -33 10 0 22 5 25 10 9 15
-4 68 -22 85 -19 20 -87 19 -107 -1z"/>
<path d="M1792 2248 c-7 -46 -18 -120 -26 -165 l-13 -83 23 0 c20 0 24 5 24
30 0 28 2 30 40 30 38 0 40 -2 40 -30 0 -25 4 -30 25 -30 14 0 25 2 25 5 0 2
-11 74 -25 159 -14 85 -25 157 -25 160 0 4 -17 6 -38 6 l-38 0 -12 -82z m66
-76 c7 -51 6 -65 -4 -69 -23 -9 -46 5 -40 24 2 10 8 42 11 71 9 66 20 57 33
-26z"/>
<path d="M2020 2166 c0 -159 1 -166 20 -166 19 0 20 7 20 99 0 55 4 102 9 105
5 3 21 -42 36 -99 26 -96 30 -105 52 -105 l23 0 0 165 c0 157 -1 165 -20 165
-18 0 -20 -8 -22 -92 l-3 -93 -26 90 c-25 87 -27 90 -57 93 l-32 3 0 -165z"/>
<path d="M2290 2165 l0 -165 25 0 25 0 0 165 0 165 -25 0 -25 0 0 -165z"/>
<path d="M2457 2312 c-14 -15 -17 -41 -17 -145 0 -114 2 -129 20 -147 12 -12
33 -20 54 -20 43 0 76 38 76 86 0 30 -3 34 -25 34 -22 0 -25 -4 -25 -35 0 -42
-25 -58 -46 -30 -15 20 -20 168 -8 213 10 35 47 26 54 -13 4 -22 11 -31 29
-33 23 -4 24 -2 18 38 -3 22 -11 47 -17 55 -18 22 -93 19 -113 -3z"/>
<path d="M2836 2314 c-10 -9 -16 -33 -16 -59 0 -38 6 -51 44 -94 53 -60 64
-87 43 -108 -21 -21 -47 -9 -47 22 0 20 -5 25 -26 25 -24 0 -26 -3 -20 -32 9
-44 33 -68 70 -68 53 0 76 24 76 79 0 43 -5 53 -51 106 -55 63 -62 97 -21 103
17 3 25 -2 29 -17 3 -12 14 -21 24 -21 25 0 25 41 1 63 -23 21 -86 22 -106 1z"/>
<path d="M3076 2308 c-12 -17 -16 -49 -16 -136 0 -108 8 -147 34 -164 22 -15
76 -8 96 12 18 18 20 33 20 148 0 149 -6 162 -78 162 -31 0 -45 -5 -56 -22z
m88 -34 c3 -9 6 -60 6 -114 0 -101 -11 -130 -45 -116 -12 4 -15 27 -15 119 0
63 3 117 7 120 12 13 41 7 47 -9z"/>
<path d="M3310 2191 c0 -125 2 -141 21 -165 26 -33 79 -36 109 -6 18 18 20 33
20 165 0 138 -1 145 -20 145 -19 0 -20 -7 -20 -134 0 -106 -3 -136 -15 -146
-8 -7 -22 -10 -30 -6 -12 4 -15 30 -15 146 l0 140 -25 0 -25 0 0 -139z"/>
<path d="M3570 2165 c0 -158 1 -165 20 -165 19 0 20 7 20 112 0 61 3 109 6
105 3 -3 18 -52 33 -109 26 -96 30 -103 54 -106 l27 -3 0 165 c0 159 -1 166
-20 166 -18 0 -20 -7 -20 -79 0 -44 -4 -82 -9 -85 -4 -3 -18 33 -31 79 -21 82
-23 85 -51 85 l-29 0 0 -165z"/>
<path d="M3830 2164 l0 -166 60 4 c89 6 94 15 98 156 3 108 2 120 -18 145 -19
24 -28 27 -81 27 l-59 0 0 -166z m99 112 c8 -9 11 -50 9 -117 l-3 -104 -27 -3
-28 -3 0 120 c0 112 1 121 19 121 10 0 24 -6 30 -14z"/>
</g>
</svg>
